<?xml version="1.0" encoding="UTF-8"?>
<svg width="28px" height="30px" viewBox="0 0 28 30" version="1.1" xmlns="http://www.w3.org/2000/svg" xmlns:xlink="http://www.w3.org/1999/xlink">
    <!-- Generator: Sketch 63 (92445) - https://sketch.com -->
    <title>Group</title>
    <desc>Created with Sketch.</desc>
    <g id="Page-1" stroke="none" stroke-width="1" fill="none" fill-rule="evenodd">
        <g id="Home" transform="translate(-240.000000, -46.000000)" fill="#000000">
            <g id="Group" transform="translate(240.000000, 46.000000)">
                <path d="M6.4,29.16 L6.4,19.56 C6.4,18.12 6.92,17.16 7.48,16.64 C8.2,16 9.12,15.88 9.8,15.88 C10.44,15.88 11.24,15.96 11.84,16.64 C12.56,17.44 12.64,18.8 12.64,20.12 L12.64,29.16 L19.04,29.16 L19.04,17.8 C19.04,16.08 18.96,14.4 17.36,12.8 C16.28,11.72 14.6,10.88 12.08,10.88 C10.96,10.88 9.64,11.04 8.4,11.76 C7.64,12.2 6.88,12.92 6.4,13.52 L6.4,3 L-2.84217094e-14,0 L-2.84217094e-14,29.16 L6.4,29.16 Z" id="h" fill-rule="nonzero"></path>
                <circle id="Oval" cx="25.5" cy="27.5" r="2.5"></circle>
            </g>
        </g>
    </g>
</svg>